<?xml version="1.0" encoding="utf-8"?>
<!-- Generator: Adobe Illustrator 25.0.0, SVG Export Plug-In . SVG Version: 6.00 Build 0)  -->
<svg version="1.1" id="レイヤー_1" xmlns="http://www.w3.org/2000/svg" xmlns:xlink="http://www.w3.org/1999/xlink" x="0px"
	 y="0px" viewBox="0 0 100 100" style="enable-background:new 0 0 100 100;" xml:space="preserve">
<style type="text/css">
	.st0{fill:url(#SVGID_1_);}
	.st1{fill:#FFFFFF;}
</style>
<g>
	<linearGradient id="SVGID_1_" gradientUnits="userSpaceOnUse" x1="8.5147" y1="5.7464" x2="65.6423" y2="66.6861">
		<stop  offset="0" style="stop-color:#FCFCFC"/>
		<stop  offset="0.2634" style="stop-color:#ACACFD"/>
		<stop  offset="0.5268" style="stop-color:#6363FE"/>
		<stop  offset="0.7446" style="stop-color:#2D2DFE"/>
		<stop  offset="0.9071" style="stop-color:#0C0CFF"/>
		<stop  offset="0.9961" style="stop-color:#0000FF"/>
	</linearGradient>
	<circle class="st0" cx="50" cy="50" r="46.67"/>
</g>
<g>
	<path class="st1" d="M21.28,73.49c2.37,1.48,6.51,3.08,10.43,3.08c5.74,0,8.41-2.82,8.41-6.44c0-3.78-2.29-5.77-8.04-7.92
		c-7.82-2.83-11.52-7.08-11.5-12.27c0-6.97,5.66-12.69,14.97-12.69c4.4,0,8.19,1.19,10.6,2.66l-1.96,5.72
		c-1.67-1.04-4.84-2.55-8.88-2.55c-4.64,0-7.17,2.68-7.17,5.94c0,3.58,2.54,5.18,8.22,7.38c7.46,2.78,11.33,6.54,11.35,13
		c0,7.67-5.96,13.04-16.18,13.04c-4.74,0-9.11-1.23-12.16-3.01L21.28,73.49z"/>
	<path class="st1" d="M58.59,81.5V44.2h-6.04v-5.96h6.04v-2.09c0-6.1,1.4-11.62,5.03-15.16c2.95-2.85,6.9-3.99,10.52-3.99
		c2.85,0,5.21,0.59,6.72,1.27l-1.04,6.04c-1.2-0.53-2.74-0.99-5.05-0.99c-6.65,0-8.39,5.89-8.39,12.57v2.34h10.45v5.96H66.42v37.3
		H58.59z"/>
</g>
</svg>
